<svg id="Layer_1" data-name="Layer 1" xmlns="http://www.w3.org/2000/svg" width="5.0900002" height="205" viewBox="0 0 5.0900002 204.99999">
  <defs
     id="defs4">
    <style
       id="style2">.cls-1{fill:none;stroke:#2c2c2c;stroke-linecap:round;stroke-linejoin:round;}</style>
  </defs>
  <g
     id="Group_780"
     data-name="Group 780"
     transform="rotate(90,2.5449874,2.5449874)">
    <path
       id="Path_500"
       data-name="Path 500"
       class="cls-1"
       d="M 34.7,0.71 31,4.8 27.72,0.71 24.72,4.8 21.72,0.71 17.83,4.8 15,0.71 11.42,4.8 7.7,0.71 4.13,4.8 0.7,0.71"
       transform="translate(-0.2,-0.21)" />
    <path
       id="Path_652"
       data-name="Path 652"
       class="cls-1"
       d="M 102.7,0.71 99,4.8 95.72,0.71 92.72,4.8 89.72,0.71 85.83,4.8 83,0.71 79.42,4.8 75.7,0.71 72.13,4.8 68.7,0.71"
       transform="translate(-0.2,-0.21)" />
    <path
       id="Path_650"
       data-name="Path 650"
       class="cls-1"
       d="M 68.7,0.71 65,4.8 61.72,0.71 58.72,4.8 55.72,0.71 51.83,4.8 49,0.71 45.42,4.8 41.7,0.71 38.13,4.8 34.7,0.71"
       transform="translate(-0.2,-0.21)" />
    <path
       id="Path_651"
       data-name="Path 651"
       class="cls-1"
       d="m 136.7,0.71 -3.7,4.09 -3.28,-4.09 -3,4.09 -3,-4.09 L 119.83,4.8 117,0.71 113.42,4.8 109.7,0.71 106.13,4.8 102.7,0.71"
       transform="translate(-0.2,-0.21)" />
    <path
       id="Path_653"
       data-name="Path 653"
       class="cls-1"
       d="m 170.7,0.71 -3.7,4.09 -3.28,-4.09 -3,4.09 -3,-4.09 L 153.83,4.8 151,0.71 147.42,4.8 143.7,0.71 140.13,4.8 136.7,0.71"
       transform="translate(-0.2,-0.21)" />
    <path
       id="Path_654"
       data-name="Path 654"
       class="cls-1"
       d="m 204.7,0.71 -3.7,4.09 -3.28,-4.09 -3,4.09 -3,-4.09 L 187.83,4.8 185,0.71 181.42,4.8 177.7,0.71 174.13,4.8 170.7,0.71"
       transform="translate(-0.2,-0.21)" />
  </g>
</svg>
